<?xml version="1.0" standalone="no"?>
<!DOCTYPE svg PUBLIC "-//W3C//DTD SVG 20010904//EN"
 "http://www.w3.org/TR/2001/REC-SVG-20010904/DTD/svg10.dtd">
<svg version="1.0" xmlns="http://www.w3.org/2000/svg"
 width="3000.000000pt" height="3000.000000pt" viewBox="0 0 3000.000000 3000.000000"
 preserveAspectRatio="xMidYMid meet">

<g transform="translate(0.000000,3000.000000) scale(0.100000,-0.100000)"
fill="#000000" stroke="none">
<path d="M11235 26439 c-235 -22 -656 -98 -806 -145 -159 -49 -337 -125 -460
-195 -132 -75 -416 -262 -535 -351 -205 -152 -425 -369 -648 -637 -105 -125
-269 -378 -390 -598 l-67 -122 -30 34 c-47 54 -90 62 -204 40 -77 -15 -103
-17 -142 -8 -71 17 -156 50 -197 78 l-36 24 0 -25 c0 -14 9 -43 20 -64 l20
-40 -62 0 c-81 -1 -149 -25 -219 -78 -72 -54 -209 -112 -268 -112 l-44 0 36
-29 36 -28 -53 -7 c-72 -8 -155 -41 -201 -79 -53 -43 -75 -96 -75 -185 0 -108
-17 -133 -162 -231 -83 -57 -153 -126 -168 -167 -14 -35 -12 -72 5 -116 8 -21
21 -53 28 -72 14 -38 35 -66 49 -66 5 0 4 9 -2 19 -14 28 -12 64 5 87 13 18
14 16 15 -27 0 -25 7 -68 15 -95 21 -70 19 -118 -9 -172 -52 -104 -67 -197
-44 -276 13 -42 101 -140 182 -200 60 -45 69 -77 49 -178 -18 -94 -13 -142 19
-183 23 -29 119 -78 174 -88 17 -3 57 -18 88 -33 50 -23 57 -31 67 -68 38
-141 86 -208 183 -256 86 -43 136 -48 206 -21 45 17 61 19 94 10 53 -14 86 -6
157 37 l59 36 68 -18 c65 -17 71 -17 118 0 54 20 67 21 136 11 40 -6 53 -4 91
18 24 14 49 33 57 41 7 9 27 16 44 16 51 0 104 19 125 45 l19 25 50 -68 c28
-37 94 -110 147 -161 l95 -92 9 -317 c5 -174 9 -330 9 -347 0 -16 7 -262 15
-545 29 -927 61 -2362 77 -3445 5 -368 12 -807 14 -975 3 -172 1 -296 -4 -285
-132 310 -1749 4638 -1767 4729 -4 17 -12 40 -19 51 -20 31 -335 906 -436
1210 -49 149 -104 299 -121 335 -70 143 -175 254 -351 371 -272 180 -510 255
-731 230 -253 -29 -452 -119 -633 -286 -134 -124 -224 -263 -311 -483 -71
-178 -95 -282 -96 -412 l0 -115 76 -190 c42 -104 154 -377 249 -605 367 -884
1937 -4682 2567 -6210 162 -393 301 -725 308 -736 8 -12 21 -50 30 -85 21 -81
89 -225 113 -238 12 -7 102 -228 272 -675 180 -471 259 -668 271 -671 10 -3
34 1 54 10 21 8 41 15 46 15 5 0 -12 -28 -37 -62 -98 -134 -136 -245 -154
-451 -10 -126 -1 -277 20 -302 6 -7 12 -59 14 -116 5 -137 67 -419 129 -582
47 -124 132 -197 229 -197 78 0 135 19 164 54 25 28 26 35 21 101 -4 38 -9 80
-13 93 -5 18 -2 22 14 22 12 0 32 -5 45 -11 21 -9 25 -20 30 -75 6 -56 3 -70
-24 -127 -56 -121 -73 -271 -44 -395 8 -35 38 -109 66 -165 l51 -102 -5 -800
c-8 -1391 -37 -2445 -104 -3790 -20 -409 -26 -643 -27 -1025 l-1 -495 34 -73
c60 -128 197 -235 491 -384 210 -107 272 -123 445 -122 117 2 146 6 288 43
252 65 440 155 640 305 178 133 261 239 288 366 l11 51 51 -83 c62 -102 134
-173 207 -207 48 -22 72 -26 185 -29 92 -3 149 0 194 11 61 14 65 14 118 -9
148 -66 395 -77 537 -24 30 12 81 38 113 59 l60 39 70 -24 c154 -52 395 -70
517 -38 33 9 93 31 131 50 133 63 228 68 425 20 269 -66 463 -55 597 36 83 56
154 170 195 315 31 109 31 294 0 448 -35 174 -52 300 -59 438 l-6 127 32 0
c23 0 34 6 41 23 6 12 33 121 60 242 63 274 90 370 144 510 120 307 138 352
156 375 18 24 19 24 39 6 34 -31 140 -323 156 -428 4 -26 15 -56 24 -67 12
-13 30 -90 56 -228 21 -114 48 -260 59 -323 l22 -115 69 2 68 3 -6 -128 c-7
-137 -24 -263 -59 -437 -31 -154 -31 -339 0 -448 27 -94 72 -187 119 -244 123
-153 345 -188 676 -106 194 47 289 42 422 -21 99 -48 177 -66 288 -66 104 0
295 29 381 58 l54 18 56 -37 c97 -65 154 -82 302 -87 148 -5 261 12 350 53 50
22 54 22 115 8 96 -22 308 -14 372 15 73 33 133 87 191 176 155 235 215 472
172 684 -36 179 -125 397 -210 516 -84 118 -223 234 -363 304 -82 42 -243 105
-320 127 -47 13 -63 22 -63 35 0 16 73 402 87 458 3 14 17 28 32 33 22 8 32
25 64 122 21 61 68 177 105 257 72 155 397 772 422 802 8 9 209 104 445 211
l430 193 3 40 c1 21 -25 401 -58 844 -68 898 -87 1187 -78 1195 3 3 27 -6 54
-20 65 -35 303 -110 428 -136 136 -28 345 -23 451 11 201 64 394 198 511 354
201 267 203 544 7 820 -19 26 -31 52 -26 56 4 4 23 12 42 18 28 10 37 9 58 -8
18 -14 30 -17 42 -11 15 9 321 760 366 900 22 68 16 128 -21 210 -32 74 -299
452 -347 494 -50 43 -154 71 -240 64 -40 -3 -81 -8 -93 -12 -18 -6 -29 6 -74
77 -69 109 -382 567 -534 783 -489 695 -738 944 -1252 1253 -381 229 -601 308
-1256 448 -352 75 -377 83 -403 134 -8 16 -29 45 -46 64 -16 19 -26 36 -22 39
16 9 706 218 947 287 642 183 904 341 1274 770 324 377 547 731 631 1005 37
118 74 301 92 440 7 55 15 106 19 114 9 16 20 -97 29 -294 l6 -130 22 35 c30
46 90 237 105 330 6 41 12 184 12 317 1 209 5 270 19 252 9 -11 69 -308 85
-416 9 -67 20 -125 24 -129 13 -13 27 41 59 231 37 217 44 431 21 590 -13 87
-13 94 12 191 39 154 93 461 110 632 32 308 19 721 -39 1208 -85 717 -165
1027 -325 1268 -46 68 -230 256 -251 256 -16 0 -9 22 17 53 45 54 81 139 117
282 47 181 60 295 41 350 -13 40 -13 41 42 150 92 185 98 300 20 392 l-35 40
34 104 c93 288 85 591 -26 923 -79 236 -169 389 -313 532 -108 108 -209 177
-360 249 -386 184 -767 201 -1200 54 -65 -22 -125 -38 -132 -35 -8 3 -91 59
-186 125 -283 195 -450 290 -686 390 -318 136 -605 216 -917 256 -130 17 -358
26 -1240 50 -780 21 -1025 39 -1415 106 -379 64 -853 195 -1235 340 -60 23
-153 50 -205 61 -261 52 -640 78 -855 57z m512 -94 c21 -7 16 -13 -51 -66 -41
-32 -89 -64 -108 -72 -70 -29 -529 -439 -788 -703 -155 -158 -444 -477 -464
-511 -4 -8 -45 -32 -90 -52 -250 -116 -477 -304 -671 -556 -38 -49 -70 -92
-73 -95 -2 -2 -33 11 -69 30 -173 89 -314 292 -375 536 -17 69 -22 120 -22
229 -1 200 -1 199 107 308 200 199 427 374 727 558 372 227 661 318 1260 394
118 14 569 15 617 0z m2663 -525 c135 -5 430 -14 655 -20 961 -24 1076 -31
1333 -81 198 -38 516 -140 692 -222 l55 -26 -55 1 c-184 2 -1196 -169 -1635
-277 -33 -8 -145 -35 -248 -60 -104 -25 -228 -57 -275 -71 -48 -13 -121 -33
-162 -45 -41 -11 -102 -29 -135 -39 -33 -10 -100 -31 -150 -46 -428 -129
-1052 -365 -1417 -536 l-86 -40 -7 -61 c-23 -192 -108 -415 -226 -592 -59 -87
-175 -200 -272 -263 -102 -66 -305 -155 -498 -218 -259 -86 -387 -168 -442
-287 -14 -28 -48 -101 -77 -162 -44 -96 -129 -241 -135 -233 -6 8 27 239 40
287 29 101 101 236 161 300 67 73 142 113 269 142 287 67 365 100 505 217 286
237 410 392 455 567 8 33 22 114 31 180 8 66 17 128 20 138 3 9 1 17 -5 17 -5
0 -12 -15 -16 -32 -20 -99 -24 -105 -93 -138 -35 -17 -66 -29 -67 -28 -2 2
-14 36 -29 76 -33 93 -56 223 -56 318 0 69 30 258 50 309 5 13 5 27 1 29 -5 3
-27 -47 -49 -112 -36 -102 -49 -150 -68 -250 -4 -21 -17 -11 -127 94 -67 64
-123 120 -125 124 -2 6 316 220 478 322 245 154 543 319 852 471 136 67 247
127 247 133 1 6 63 39 139 73 119 53 143 60 182 56 25 -2 155 -9 290 -15z
m-6559 -1387 c13 -16 12 -17 -3 -4 -17 13 -22 21 -14 21 2 0 10 -8 17 -17z
m10533 -920 c3 -21 8 -65 12 -98 3 -33 8 -67 10 -76 4 -14 -27 -17 -278 -22
-156 -4 -357 -12 -447 -17 -90 -6 -166 -8 -169 -5 -3 2 -15 49 -27 102 -20 89
-20 99 -6 104 16 6 473 31 853 47 l46 2 6 -37z m276 22 c178 -7 371 -29 455
-52 l63 -17 12 -109 c6 -59 10 -110 8 -112 -2 -2 -62 7 -133 20 -123 22 -441
55 -538 55 l-44 0 -12 88 c-17 135 -16 142 17 137 15 -2 92 -7 172 -10z
m-1230 -237 c0 -10 -5 -18 -12 -18 -16 0 -696 -79 -734 -85 l-32 -5 -22 90
c-12 49 -23 98 -24 107 -1 16 40 22 389 63 l390 46 22 -90 c12 -50 22 -99 23
-108z m1895 123 c80 -25 423 -154 460 -174 43 -22 139 -121 171 -174 38 -66
30 -126 -32 -241 -25 -48 -48 -88 -49 -90 -2 -2 -38 8 -82 21 -79 25 -252 67
-373 90 -74 15 -84 26 -106 132 -20 89 -24 84 64 68 78 -14 310 -69 337 -80
34 -12 11 20 -42 62 -67 52 -205 122 -311 158 -40 14 -75 27 -78 29 -7 8 -31
218 -25 218 4 0 33 -9 66 -19z m-2776 -118 c12 -49 24 -95 27 -104 4 -13 -18
-18 -133 -33 -76 -9 -225 -31 -332 -47 -107 -16 -195 -28 -196 -26 -6 10 -45
200 -41 204 10 10 547 90 617 92 l37 1 21 -87z m-730 -124 c13 -55 21 -102 19
-103 -1 -1 -46 -10 -98 -20 -101 -18 -583 -124 -604 -132 -9 -4 -21 25 -39 98
-14 56 -24 104 -22 106 11 12 649 151 696 151 25 1 27 -4 48 -100z m2656 -116
c14 -32 40 -72 56 -89 l30 -31 -363 -6 c-200 -4 -406 -10 -460 -13 l-96 -7
-32 63 c-17 34 -30 63 -28 65 9 9 277 35 453 45 185 11 391 25 407 29 3 0 18
-25 33 -56z m638 33 c54 -7 102 -18 106 -22 5 -5 14 -45 21 -88 6 -44 14 -85
16 -91 3 -7 -33 -5 -113 6 -130 19 -358 39 -436 39 -46 0 -52 3 -91 46 -43 48
-86 112 -86 128 0 13 466 -1 583 -18z m-4104 -23 c31 -119 42 -165 39 -168 -4
-2 -574 -132 -602 -137 -18 -3 -22 9 -39 95 -11 54 -18 99 -16 100 6 5 582
146 596 146 7 1 17 -16 22 -36z m2522 -100 c13 -32 25 -60 27 -64 2 -4 -41
-12 -95 -19 -54 -7 -159 -22 -233 -35 -125 -21 -190 -23 -190 -6 0 39 200 128
370 165 97 21 94 22 121 -41z m-3197 -129 c10 -52 17 -96 15 -98 -3 -3 -600
-125 -633 -130 -14 -2 -37 177 -24 185 5 3 83 23 171 43 89 20 218 49 287 65
180 42 163 48 184 -65z m-721 -96 c4 -18 9 -60 13 -93 l6 -61 -168 -38 c-189
-43 -533 -116 -545 -116 -5 0 -11 17 -14 38 -4 20 -9 49 -11 64 -5 27 -4 27
143 74 117 37 536 158 564 163 4 1 9 -14 12 -31z m6248 -100 c19 -21 21 -31
16 -108 -7 -107 -69 -345 -110 -423 -41 -77 -131 -159 -232 -207 -43 -22 -81
-37 -84 -35 -2 3 17 28 43 57 150 170 223 283 260 407 8 29 21 103 27 165 16
164 32 193 80 144z m-13971 -72 c177 -62 406 -195 518 -301 l57 -55 -41 14
c-23 8 -59 23 -81 34 -147 76 -426 117 -623 93 -120 -15 -287 -70 -383 -127
-86 -50 -225 -177 -293 -267 -83 -110 -149 -265 -185 -432 -7 -33 -14 -62 -15
-64 -2 -2 -60 11 -129 30 l-125 33 7 41 c21 138 122 410 201 543 120 201 331
372 542 441 131 42 189 50 335 47 120 -3 151 -7 215 -30z m6935 -83 c4 -27 7
-54 8 -62 1 -9 -35 -23 -118 -46 -66 -17 -185 -56 -265 -85 -80 -29 -185 -65
-235 -80 l-90 -28 -9 50 c-5 29 -5 52 0 57 7 7 146 56 634 224 66 23 68 22 75
-30z m-4777 -60 c-27 -27 -27 -27 -49 -7 l-21 19 28 6 c16 4 38 7 49 8 17 1
17 -2 -7 -26z m3992 -190 c0 -16 3 -38 6 -50 5 -18 2 -23 -12 -23 -11 0 -77
-21 -149 -46 -396 -139 -545 -182 -545 -156 0 15 64 69 113 94 45 23 553 207
575 208 7 0 12 -12 12 -27z m6492 -209 c143 -27 363 -78 415 -95 30 -10 33
-14 54 -104 12 -52 28 -100 36 -107 10 -8 50 -12 112 -13 83 0 109 4 194 33
l97 34 93 -45 c127 -62 204 -116 276 -193 70 -74 105 -139 149 -274 66 -203
112 -443 166 -875 50 -395 57 -692 26 -1057 -24 -273 -81 -556 -144 -713 -53
-130 -56 -134 -113 -128 -56 6 -210 43 -303 73 -36 11 -88 27 -117 35 -28 8
-109 39 -180 69 -70 30 -138 57 -151 61 -13 4 -76 33 -140 66 -63 32 -120 59
-125 59 -4 0 -66 32 -135 71 -125 69 -128 72 -169 139 l-41 69 37 -19 c43 -21
205 -63 230 -58 17 4 -93 69 -139 83 -48 14 -136 63 -179 99 -24 20 -46 36
-50 36 -4 0 -39 27 -77 61 -137 119 -353 244 -529 305 -76 27 -89 28 -260 28
-162 0 -189 -3 -275 -26 -217 -59 -448 -162 -620 -275 -163 -108 -300 -226
-615 -528 -679 -652 -898 -800 -1220 -821 l-90 -6 60 42 c386 274 691 701 820
1150 70 243 105 464 126 792 32 497 -31 849 -216 1218 -33 66 -69 116 -142
197 -54 60 -125 142 -158 183 -33 40 -70 84 -82 96 -26 28 -45 22 210 74 502
102 890 154 1557 210 589 49 1044 76 1302 79 154 1 196 -2 310 -25z m1226
-156 c81 -63 182 -177 234 -265 143 -243 223 -610 308 -1423 27 -254 37 -678
21 -871 -13 -147 -63 -470 -101 -639 -56 -251 -147 -446 -265 -566 -113 -115
-196 -160 -380 -204 -80 -20 -234 -25 -299 -11 -26 5 -22 8 40 24 101 27 203
78 302 149 48 35 119 85 159 111 80 54 121 95 180 183 122 180 189 383 238
719 78 540 59 1053 -66 1800 -37 223 -107 463 -167 579 -41 78 -138 182 -229
245 -32 21 -80 61 -106 88 l-48 50 58 36 c32 20 60 36 62 37 2 0 29 -19 59
-42z m-12143 -58 c3 -5 -3 -10 -15 -10 -12 0 -18 5 -15 10 3 6 10 10 15 10 5
0 12 -4 15 -10z m7532 -168 c203 -169 349 -392 441 -672 39 -117 72 -239 72
-268 0 -21 -74 35 -110 83 -19 25 -61 66 -94 92 -34 26 -54 39 -46 29 14 -18
14 -18 -5 -8 -45 25 -186 152 -226 203 -24 30 -89 101 -144 159 -56 58 -117
127 -135 154 -18 26 -61 81 -97 122 -42 49 -60 76 -51 79 41 14 287 73 310 74
18 1 45 -14 85 -47z m-6097 -136 c-1 -25 -10 -37 -45 -63 -24 -18 -47 -33 -50
-33 -3 0 -5 43 -5 95 l0 94 50 -31 c43 -27 50 -35 50 -62z m142 -53 c29 -17
29 -20 23 -73 -14 -122 -8 -113 -132 -211 -63 -50 -116 -89 -118 -87 -2 2 -6
53 -10 114 l-7 111 103 81 c57 44 106 81 107 81 2 1 17 -7 34 -16z m-3542
-298 c1102 -305 1383 -384 1385 -388 9 -16 76 -209 73 -212 -3 -3 -387 107
-1678 482 l-785 228 -22 55 c-30 77 -40 135 -22 128 8 -3 480 -135 1049 -293z
m-807 -22 c31 -6 41 -21 51 -76 12 -65 86 -285 158 -472 39 -99 78 -203 88
-231 l18 -52 -61 19 c-33 10 -64 22 -68 26 -6 6 -214 504 -322 769 l-25 62 67
-19 c36 -11 79 -22 94 -26z m4236 -219 c1 -46 -6 -76 -24 -116 -39 -84 -65
-202 -66 -297 -2 -73 -3 -64 -10 54 -4 77 -9 205 -11 284 l-4 143 50 40 51 41
7 -44 c3 -24 7 -72 7 -105z m4027 29 c-141 -201 -239 -361 -337 -548 -38 -71
-69 -121 -69 -110 0 20 70 579 73 581 16 14 394 192 409 194 4 0 -30 -53 -76
-117z m-4052 -658 l26 -33 -17 -84 c-15 -76 -41 -128 -65 -128 -4 0 -8 84 -8
188 l1 187 19 -48 c10 -27 30 -63 44 -82z m5276 -90 c102 -59 212 -120 245
-135 77 -36 242 -86 326 -100 l67 -12 31 -68 c44 -95 64 -202 65 -355 1 -147
-16 -219 -81 -350 -135 -270 -351 -419 -658 -455 -118 -14 -215 3 -325 57
-171 83 -316 259 -364 438 -52 192 -17 477 81 670 55 109 111 180 252 319 126
125 131 128 153 114 13 -8 106 -64 208 -123z m-8240 -264 c1417 -449 1417
-449 1425 -469 3 -9 51 -136 105 -282 54 -146 103 -278 109 -293 6 -16 8 -26
3 -24 -4 3 -99 30 -212 62 -417 117 -2164 616 -2165 618 -1 1 -48 115 -105
252 -57 138 -122 297 -146 354 -42 99 -43 103 -21 99 12 -3 465 -146 1007
-317z m6206 282 c-4 -16 -9 -177 -13 -359 l-6 -330 -431 -18 c-237 -9 -683
-28 -991 -41 -308 -12 -561 -22 -563 -20 -4 4 344 230 518 337 177 108 437
262 619 367 l125 71 80 1 c45 1 160 5 256 8 96 4 228 8 294 9 l118 2 -6 -27z
m-3286 -338 l-18 -90 -1 74 c-1 57 3 79 16 93 9 10 17 17 19 16 1 -2 -6 -43
-16 -93z m-3401 -659 c114 -254 241 -559 236 -565 -3 -2 -33 4 -68 13 l-63 17
-160 387 -159 387 62 -19 62 -20 90 -200z m12206 73 c151 -39 312 -129 410
-229 l50 -51 -57 26 c-71 33 -228 73 -316 81 -37 3 -105 15 -152 26 -70 17
-105 20 -205 15 -143 -6 -209 -23 -332 -81 -173 -84 -360 -222 -629 -468 -756
-689 -917 -799 -1333 -915 -88 -25 -109 -27 -257 -25 -89 2 -177 7 -195 12
-19 6 -64 10 -101 10 -37 0 -70 5 -73 10 -3 6 3 10 14 10 11 0 41 11 68 25 36
20 61 25 103 24 80 -2 257 11 315 23 86 19 384 136 500 197 288 151 389 231
683 542 283 299 432 429 685 596 159 105 323 170 487 193 93 13 242 4 335 -21z
m153 -255 c104 -21 175 -46 180 -63 4 -11 -3 -13 -34 -7 -22 3 -109 9 -194 12
-242 10 -462 -15 -725 -81 -71 -18 -131 -31 -133 -30 -8 7 222 89 336 120 243
66 416 81 570 49z m-5526 -226 c30 -62 88 -162 129 -223 41 -60 87 -132 103
-158 44 -77 168 -236 248 -318 177 -183 388 -311 582 -354 41 -9 133 -23 203
-30 84 -8 172 -25 258 -49 156 -44 270 -67 476 -98 201 -30 541 -32 689 -5
284 53 607 216 910 460 58 47 211 180 340 295 l235 211 7 -54 c12 -92 78 -196
194 -306 112 -105 227 -168 429 -234 220 -73 350 -98 503 -99 130 -1 133 -1
139 -24 3 -13 3 -89 0 -170 -6 -186 -23 -248 -124 -452 -72 -147 -81 -160
-167 -246 -77 -76 -106 -97 -186 -137 -179 -87 -332 -116 -667 -124 -356 -9
-542 11 -1000 109 l-242 51 6 44 c6 48 -5 55 -37 23 -28 -28 -50 -86 -50 -134
0 -49 13 -66 51 -66 26 0 27 2 19 30 -7 23 -5 30 6 30 8 0 114 -22 237 -49
430 -95 614 -115 995 -108 286 5 371 14 532 58 170 46 359 165 446 280 97 128
192 326 234 488 l12 44 55 -94 c107 -179 250 -288 448 -341 116 -31 375 -31
489 0 120 33 219 80 351 166 129 85 136 86 166 28 20 -38 29 -25 29 40 0 36
-6 47 -53 95 -54 53 -70 60 -97 43 -12 -7 -11 -13 10 -35 30 -32 32 -31 -131
-133 -208 -129 -395 -176 -612 -154 -266 28 -414 122 -549 348 -102 170 -98
158 -98 293 l0 121 48 24 c150 76 416 354 510 533 15 29 29 53 33 53 3 0 15
-21 28 -47 79 -163 227 -373 315 -446 294 -243 772 -237 1058 12 l51 45 -6
-184 c-3 -102 -12 -232 -19 -290 l-13 -105 -8 65 c-16 129 -68 320 -87 320 -4
0 -19 -75 -34 -167 -46 -280 -83 -455 -126 -584 -100 -306 -303 -629 -636
-1014 -361 -419 -610 -563 -1309 -761 -212 -59 -636 -188 -845 -256 -69 -22
-136 -40 -150 -40 -14 0 -32 -6 -40 -13 -22 -19 -346 -126 -545 -179 -328 -88
-570 -119 -935 -119 -278 0 -402 14 -710 83 -348 77 -652 128 -1045 175 -566
69 -809 121 -1212 260 -469 161 -1020 436 -1317 656 -320 237 -584 578 -754
974 -73 168 -87 233 -86 390 l1 120 -21 -125 c-12 -69 -25 -131 -30 -139 -17
-26 15 -473 39 -546 19 -55 -158 189 -228 315 -46 85 -120 265 -146 360 -28
105 -47 224 -70 450 -20 189 -20 197 -2 271 16 70 16 78 1 106 l-16 31 -21
-32 c-20 -30 -96 -322 -110 -421 -3 -25 -9 -42 -14 -38 -4 4 -15 100 -24 212
-21 247 -17 598 11 859 l18 174 27 -6 c15 -3 87 -10 160 -17 250 -22 858 -3
2094 65 231 13 459 24 507 25 l86 1 54 -112z m-3351 -53 l48 -50 2 -98 3 -99
-53 -40 c-29 -22 -55 -38 -58 -35 -2 3 -7 97 -10 209 -3 159 -2 199 8 183 6
-11 33 -42 60 -70z m317 -232 c-3 -43 -7 -81 -7 -84 -1 -4 -49 -42 -108 -86
-60 -43 -143 -105 -185 -136 l-78 -58 0 88 1 88 177 132 c97 72 184 132 192
132 13 1 14 -10 8 -76z m-3563 48 c39 -11 439 -119 890 -240 451 -121 929
-250 1062 -286 133 -36 248 -65 256 -65 13 0 75 -146 65 -155 -2 -2 -188 43
-413 99 -338 86 -1702 432 -1838 467 -41 11 -46 18 -96 147 -24 60 -25 60 74
33z m13231 -266 c199 -50 622 -28 754 40 47 25 35 1 -31 -58 -116 -106 -276
-167 -433 -167 -96 0 -198 20 -257 51 -48 24 -141 114 -164 159 l-15 29 44
-19 c24 -11 70 -26 102 -35z m1137 -190 c1 -93 -2 -192 -7 -220 l-8 -50 -35
120 c-19 66 -41 138 -47 160 -12 38 -11 43 33 127 43 81 46 85 54 60 5 -15 10
-103 10 -197z m-14274 183 c39 -9 52 -17 60 -37 6 -14 39 -105 75 -201 35 -96
103 -276 151 -400 47 -124 129 -342 181 -485 158 -431 525 -1324 726 -1765 44
-96 136 -296 203 -445 67 -148 158 -349 202 -445 44 -96 113 -250 152 -341
l73 -167 -34 -51 c-18 -28 -35 -51 -38 -51 -3 0 -55 123 -117 273 -62 149
-468 1134 -904 2187 -435 1053 -793 1921 -796 1928 -6 15 2 15 66 0z m3211
-235 c2 -691 28 -1766 56 -2368 20 -442 33 -741 34 -791 0 -40 -2 -42 -59 -76
l-60 -35 -5 71 c-3 39 -10 186 -16 326 -6 140 -14 338 -20 440 -5 102 -14 523
-19 935 -6 413 -13 824 -16 915 -3 91 -6 261 -7 379 l-2 215 50 37 c27 21 52
38 57 38 4 1 7 -38 7 -86z m1913 -2327 c413 -266 1080 -558 1560 -682 107 -27
109 -28 102 -53 -3 -14 -8 -58 -12 -98 l-6 -72 -51 -15 c-28 -8 -152 -36 -276
-61 -282 -58 -550 -125 -700 -177 -140 -48 -388 -167 -571 -275 l-135 -80 -13
76 c-7 42 -12 85 -11 96 3 54 18 921 19 1143 0 138 3 252 6 252 2 0 42 -24 88
-54z m-1252 -263 c1 -10 0 -22 -2 -28 -1 -5 -1 -152 0 -325 2 -173 0 -336 -4
-362 l-7 -48 -182 -1 c-262 -1 -342 -9 -413 -45 -43 -21 -66 -42 -90 -78 l-33
-48 0 63 0 64 73 54 c94 69 161 97 270 112 62 8 90 17 97 28 4 9 33 145 64
301 31 157 59 295 61 308 5 21 11 22 85 22 69 0 80 -2 81 -17z m-1531 -499 c0
-33 138 -648 166 -736 4 -13 -8 -22 -48 -39 -98 -42 -422 -207 -483 -247 -69
-44 -129 -110 -147 -159 -15 -41 -24 -42 -33 -3 -8 38 21 90 150 270 99 137
117 165 111 171 -2 2 -11 60 -20 129 -8 69 -25 195 -36 280 -11 85 -20 167
-20 181 0 24 12 31 168 97 92 39 173 71 180 72 6 0 12 -7 12 -16z m4701 -121
c18 -32 86 -146 152 -253 317 -518 574 -805 1457 -1630 96 -90 184 -172 195
-182 20 -20 19 -20 -89 -123 l-110 -103 -70 49 c-308 214 -892 764 -1174 1105
-79 96 -227 298 -287 394 -62 98 -70 130 -100 385 -13 117 -21 415 -11 415 3
0 19 -26 37 -57z m3833 -35 c25 -113 37 -231 47 -435 14 -269 28 -222 -121
-406 -237 -294 -504 -580 -1121 -1202 l-486 -489 -59 31 c-141 75 -278 85
-487 38 -66 -14 -121 -25 -123 -22 -9 9 380 375 413 388 14 5 27 17 30 27 3 9
47 52 97 94 156 130 405 369 781 749 680 687 928 991 995 1217 16 50 25 53 34
10z m310 -76 l76 -18 -64 -133 c-73 -149 -68 -151 -85 24 -6 61 -14 121 -17
134 -5 16 -4 22 3 18 6 -4 45 -15 87 -25z m-4404 -2 c0 -5 -2 -10 -4 -10 -3 0
-8 5 -11 10 -3 6 -1 10 4 10 6 0 11 -4 11 -10z m-30 -120 c34 -67 42 -94 55
-196 75 -576 152 -892 309 -1277 54 -133 67 -172 45 -134 -20 35 -54 20 -105
-45 -66 -86 -176 -199 -388 -400 -418 -397 -674 -600 -1018 -808 -175 -106
-188 -116 -188 -142 0 -37 192 -306 530 -743 345 -446 561 -736 558 -749 -2
-8 -250 -389 -263 -404 -5 -6 -1596 117 -1604 124 -6 5 23 207 75 524 72 442
92 529 210 922 136 455 180 589 420 1277 107 305 193 556 191 558 -6 5 -388
-987 -507 -1317 -80 -220 -98 -244 -225 -306 -120 -58 -144 -60 -160 -15 -6
19 -18 38 -26 42 -8 4 -88 15 -179 24 -311 31 -472 76 -718 201 -181 92 -192
99 -192 124 0 10 -9 47 -20 83 -15 49 -33 80 -71 121 l-50 55 239 358 c259
389 606 887 710 1023 165 214 336 391 482 501 242 181 679 395 1075 524 130
43 247 72 575 143 201 44 178 51 240 -68z m4885 19 c419 -99 576 -149 765
-244 201 -101 530 -312 712 -457 239 -190 444 -434 843 -1003 177 -252 514
-750 523 -773 2 -8 -16 -35 -41 -60 -55 -57 -83 -108 -98 -181 -7 -31 -17 -62
-23 -68 -24 -27 -346 -181 -440 -211 -122 -39 -271 -67 -481 -90 l-160 -18
-15 -32 -15 -32 -96 43 c-52 24 -115 57 -139 74 -42 29 -47 37 -79 134 -125
387 -278 722 -654 1434 -169 319 -158 290 71 -195 242 -513 412 -942 562
-1415 23 -72 88 -319 95 -360 3 -17 22 -97 44 -180 44 -167 113 -482 136 -620
16 -98 43 -298 40 -303 -1 -1 -113 -22 -249 -45 l-247 -43 6 25 c17 68 115
568 115 588 0 29 -20 39 -160 78 -270 77 -536 167 -1400 475 -262 94 -488 170
-502 170 -37 0 -49 -22 -88 -157 -20 -66 -37 -110 -43 -106 -14 9 -1 365 18
499 21 147 73 353 146 581 130 406 253 870 303 1144 50 273 59 391 58 723 l-1
308 94 194 c87 177 97 194 118 189 12 -2 139 -32 282 -66z m-8325 -191 c-1
-207 -14 -352 -34 -383 -22 -33 -71 -35 -80 -2 -3 12 -6 107 -6 210 0 171 2
192 21 230 12 23 33 54 47 70 48 51 52 41 52 -125z m-237 22 c3 -11 1 -23 -4
-26 -5 -3 -9 6 -9 20 0 31 6 34 13 6z m653 -162 c130 -13 121 -2 103 -124
l-12 -77 -114 5 c-70 3 -116 2 -120 -5 -3 -5 -9 -153 -12 -328 -4 -175 -10
-321 -13 -324 -3 -3 -22 -9 -42 -12 -33 -5 -41 -2 -72 28 -19 18 -45 49 -58
68 -24 35 -24 40 -26 276 -1 298 9 426 36 456 45 51 120 59 330 37z m-1366
-256 c0 -19 -34 -52 -82 -80 -73 -41 -227 -187 -249 -237 -33 -71 -26 -154 23
-272 23 -57 39 -106 35 -109 -3 -4 -25 -7 -48 -8 -34 -1 -46 5 -69 31 -29 33
-62 110 -87 207 -12 48 -13 70 -4 114 24 121 66 159 315 288 136 71 166 83
166 66z m8559 -162 c-28 -385 -69 -576 -330 -1535 -187 -687 -222 -894 -223
-1315 -1 -211 2 -253 17 -305 24 -76 49 -126 88 -169 l30 -35 -23 -5 c-13 -3
-39 -7 -58 -10 -53 -9 -97 -41 -121 -88 -27 -54 -30 -133 -6 -168 9 -13 17
-27 17 -30 0 -14 -81 -51 -143 -65 -37 -8 -162 -29 -279 -45 -357 -51 -507
-103 -626 -218 -51 -49 -69 -60 -106 -65 -59 -8 -159 -50 -205 -84 -20 -16
-38 -28 -41 -29 -3 0 -50 -4 -105 -8 -55 -4 -111 -10 -125 -12 -14 -3 0 7 30
22 67 34 144 111 185 185 29 52 30 59 30 174 0 141 -14 183 -89 263 l-46 49
21 27 c11 14 25 26 30 26 6 0 30 -14 55 -31 24 -16 75 -44 112 -62 58 -27 80
-32 168 -35 209 -8 356 74 437 246 28 59 32 77 32 152 0 79 -3 91 -42 173 -24
49 -43 92 -43 95 0 4 15 17 34 30 l34 23 39 -25 c82 -53 261 -82 356 -55 60
16 158 90 209 157 130 171 112 403 -43 567 -84 89 -208 132 -353 123 -138 -9
-239 -80 -302 -211 -19 -39 -34 -77 -34 -83 0 -22 -26 -32 -100 -40 l-74 -7
127 136 c71 76 136 156 147 179 42 92 17 172 -83 264 -55 52 -169 141 -237
185 l-25 17 435 438 c622 628 945 973 1160 1241 40 51 75 92 76 90 1 -1 -2
-58 -7 -127z m-3692 -60 c140 -188 272 -339 453 -519 357 -355 685 -643 910
-799 2 -1 -46 -52 -106 -113 l-110 -110 -135 -34 c-137 -34 -297 -61 -307 -51
-3 4 -4 33 -3 66 3 70 -24 139 -63 165 -38 25 -106 30 -158 13 l-44 -15 -12
63 c-14 72 -29 114 -242 654 -173 441 -321 858 -291 824 4 -5 53 -70 108 -144z
m-4571 -155 l6 -40 -133 -56 -134 -55 2 -35 c1 -20 99 -294 217 -610 180 -483
212 -576 201 -589 -7 -8 -36 -48 -63 -88 l-50 -73 -102 258 c-56 142 -165 419
-242 616 -132 340 -139 361 -133 410 4 35 1 69 -9 102 -23 72 -20 90 19 133
45 50 129 95 268 142 l112 37 18 -56 c9 -31 20 -74 23 -96z m-192 -1231 c69
-177 127 -331 128 -343 3 -18 -6 -26 -42 -40 l-46 -18 -229 601 c-126 331
-230 606 -232 612 -2 5 16 14 39 20 l43 9 106 -260 c59 -143 163 -404 233
-581z m4740 401 c75 -90 96 -140 77 -181 -6 -14 -20 -28 -31 -31 -11 -3 -22
-15 -26 -27 -12 -38 -522 -539 -617 -605 -20 -14 -20 -13 3 19 27 39 126 158
300 360 125 147 193 233 232 296 l26 40 -53 74 -52 75 30 38 c17 20 34 34 38
30 4 -5 37 -44 73 -88z m338 -272 c21 -6 40 -60 40 -117 1 -51 -31 -113 -87
-166 l-36 -35 7 30 c4 17 17 51 30 77 29 58 30 83 4 126 -23 37 -25 37 -74 17
-24 -10 -42 -12 -53 -7 -14 8 -13 11 8 24 80 50 116 67 129 62 8 -4 23 -8 32
-11z m-3988 -110 c-9 -16 -55 -85 -102 -155 l-84 -126 -40 14 c-22 8 -51 14
-64 14 -13 0 -24 3 -24 7 0 20 69 108 137 175 76 74 112 95 172 97 23 1 23 1
5 -26z m4281 -93 c25 -28 32 -110 11 -151 -9 -17 -16 -37 -16 -43 0 -15 -83
-85 -129 -108 -19 -10 -46 -18 -58 -18 -19 0 -23 5 -23 33 0 36 34 91 85 137
15 14 34 38 42 53 13 25 13 31 -1 51 -8 13 -29 29 -47 36 -28 12 -30 15 -13
21 10 4 44 8 75 8 44 1 60 -3 74 -19z m1219 -93 c71 -33 210 -117 255 -155
l33 -27 -329 -325 c-180 -179 -395 -386 -478 -460 -82 -73 -165 -147 -182
-164 -19 -17 -33 -24 -33 -17 0 8 144 158 319 335 175 176 349 359 386 406 62
78 115 172 115 203 0 18 -142 70 -205 75 -81 7 -204 -14 -390 -65 -148 -40
-182 -46 -265 -46 -100 0 -320 13 -320 19 0 20 39 75 55 78 173 33 248 46 286
51 26 3 124 28 218 55 202 59 265 69 386 66 74 -2 101 -7 149 -29z m-1154
-168 c-6 -10 -15 -19 -20 -19 -13 0 -13 6 2 29 15 25 31 16 18 -10z m1574
-122 c73 -72 88 -110 63 -170 -9 -19 -87 -111 -174 -204 -87 -92 -237 -256
-334 -363 -97 -107 -219 -236 -272 -287 -151 -144 -532 -466 -512 -433 19 32
114 142 250 290 78 85 159 175 181 200 21 25 80 90 129 145 200 221 540 628
576 689 25 42 20 65 -23 101 l-31 26 34 35 c18 18 37 34 41 34 4 0 37 -28 72
-63z m-6863 -85 c-5 -10 -18 -25 -27 -33 -11 -9 -9 -2 6 19 26 35 36 42 21 14z
m105 -77 c-34 -51 -95 -250 -110 -355 -24 -174 -26 -212 -16 -295 23 -193 24
-205 8 -205 -9 0 -24 12 -34 28 -16 23 -19 52 -22 200 -6 281 21 461 90 609
17 37 24 42 56 45 47 4 48 3 28 -27z m6356 -112 c-60 -74 -369 -371 -502 -482
-43 -35 -34 -25 25 30 50 45 182 174 295 286 113 112 207 203 208 203 2 0 -10
-17 -26 -37z m774 -4 c-92 -30 -170 -39 -149 -18 22 22 119 48 178 48 l60 0
-89 -30z m-12 -136 c-4 -21 -7 -39 -8 -40 0 0 -23 -4 -51 -9 l-49 -7 15 24
c16 25 75 69 91 69 5 0 6 -17 2 -37z m173 6 c48 -23 61 -46 36 -65 -23 -17
-48 -17 -62 0 -7 8 -27 17 -46 20 -36 7 -39 14 -29 54 8 27 29 25 101 -9z
m209 -63 c14 -30 27 -77 31 -104 5 -47 2 -57 -57 -168 -35 -66 -72 -132 -83
-148 -28 -40 -110 -76 -174 -76 l-51 0 21 39 c19 35 27 40 78 50 43 9 66 20
94 48 75 73 112 211 85 321 -7 30 -9 69 -5 92 7 40 8 41 22 21 8 -12 25 -45
39 -75z m-6629 -6 c129 -71 206 -103 322 -134 47 -13 79 -26 71 -29 -8 -2 -94
-23 -190 -47 -96 -23 -233 -64 -304 -91 -71 -27 -135 -49 -143 -49 -33 0 10
187 69 304 32 63 58 106 64 106 2 0 52 -27 111 -60z m10890 -25 c47 -89 78
-184 88 -267 5 -47 4 -58 -8 -58 -8 0 -72 22 -143 49 -71 27 -208 68 -304 91
-96 24 -182 45 -190 47 -8 3 24 16 73 29 113 31 209 71 327 138 52 30 99 54
105 52 5 -1 29 -38 52 -81z m-1452 -12 c30 -15 55 -30 55 -34 0 -3 -15 -39
-33 -79 l-33 -73 -27 100 c-28 105 -30 113 -22 113 2 0 29 -12 60 -27z m-8107
-92 c-12 -45 -25 -81 -29 -81 -6 0 -32 131 -27 134 22 12 74 33 76 31 2 -2 -7
-40 -20 -84z m5179 -8 c-3 -30 -8 -58 -11 -61 -3 -3 -24 3 -46 13 -39 17 -51
37 -30 50 6 3 10 14 10 25 0 10 15 27 32 39 29 18 34 18 42 4 5 -9 6 -40 3
-70z m3087 25 c-3 -13 -26 -84 -50 -159 -48 -148 -52 -177 -29 -185 8 -4 48 2
88 12 62 16 112 19 367 19 318 0 439 -10 610 -51 131 -31 324 -119 314 -143
-14 -32 -16 -72 -4 -85 6 -8 39 -28 73 -44 75 -36 202 -123 199 -137 -3 -13
-143 -60 -267 -90 -236 -55 -557 -94 -1035 -125 -91 -5 -180 -11 -199 -12
l-35 -3 -47 230 c-26 127 -65 303 -87 393 l-39 162 55 120 c42 93 59 120 74
120 15 0 18 -5 12 -22z m-8386 -35 c6 -27 18 -88 28 -138 l17 -90 -42 -165
c-23 -90 -43 -166 -45 -168 -6 -5 -333 -77 -556 -122 -392 -78 -699 -108 -927
-90 -75 6 -139 13 -141 15 -15 14 131 119 223 161 29 14 58 31 65 39 12 14 10
53 -4 86 -10 24 183 112 314 143 171 41 292 51 610 51 255 0 305 -3 367 -19
40 -10 80 -16 88 -12 23 9 19 37 -30 188 -25 77 -45 144 -45 148 0 5 8 11 18
13 44 12 50 8 60 -40z m10180 -38 l0 -40 -9 40 c-4 22 -8 49 -8 60 l0 20 9
-20 c5 -11 8 -38 8 -60z m-12018 -115 c-1 -3 -7 4 -15 14 -8 11 -15 34 -14 50
0 28 2 27 15 -14 7 -25 14 -47 14 -50z m7048 55 c23 -9 42 -21 42 -25 0 -18
-63 -60 -91 -60 -28 0 -29 2 -29 48 0 50 6 66 24 58 6 -2 30 -12 54 -21z
m-1528 -108 c0 -2 -10 -12 -22 -23 l-23 -19 19 23 c18 21 26 27 26 19z m849
-11 c-5 -5 -112 -83 -158 -115 l-33 -24 7 24 c20 65 92 118 159 119 16 0 27
-2 25 -4z m2174 -152 c488 -174 958 -332 1115 -374 70 -19 121 -38 119 -44 -2
-6 -17 -75 -33 -153 -31 -155 -28 -151 -97 -132 -42 11 -41 -3 -5 143 16 64
17 81 6 88 -7 4 -51 20 -98 34 -186 55 -609 198 -724 244 -79 31 -150 52 -202
59 -48 7 -98 21 -129 37 -27 15 -88 46 -135 70 -76 39 -152 87 -202 129 -20
16 -24 35 -7 35 6 0 182 -61 392 -136z m-8639 -185 c9 -46 14 -84 12 -86 -2
-2 -22 42 -46 99 -40 96 -41 102 -24 115 16 11 19 10 30 -16 7 -16 19 -67 28
-112z m6534 29 c10 -39 4 -43 -44 -28 l-36 12 28 24 c38 31 42 30 52 -8z
m-673 -52 c-14 -31 -25 -64 -25 -74 0 -18 -54 -55 -325 -227 -166 -106 -267
-166 -250 -148 6 5 78 63 160 128 164 129 294 238 394 328 35 32 65 56 67 54
3 -2 -7 -29 -21 -61z m608 -40 c45 -13 57 -21 57 -37 0 -23 -27 -79 -38 -79
-7 1 -93 114 -101 133 -2 6 3 8 10 5 8 -3 40 -13 72 -22z m-6766 -72 l2 -49
-14 45 c-18 55 -18 63 -2 58 7 -3 13 -25 14 -54z m6679 -25 l55 -73 -33 -17
c-18 -9 -53 -20 -77 -24 l-44 -7 8 88 c6 78 19 123 32 111 2 -2 28 -37 59 -78z
m-161 -51 c-4 -29 -9 -55 -11 -57 -5 -6 -94 21 -94 28 1 8 93 80 103 81 5 0 6
-24 2 -52z m-5955 -72 c0 -2 -7 -9 -15 -16 -12 -10 -15 -10 -15 4 0 9 7 16 15
16 8 0 15 -2 15 -4z m5610 -375 c13 -46 13 -98 0 -106 -6 -3 -30 8 -54 26 -38
27 -43 35 -36 54 5 12 14 42 20 65 l11 42 25 -23 c13 -12 28 -39 34 -58z
m3901 53 c15 -4 15 -11 2 -82 -24 -130 -91 -427 -140 -624 l-47 -187 -79 -21
c-43 -12 -81 -20 -83 -18 -4 4 111 420 180 650 19 65 40 143 46 175 6 32 16
73 22 91 10 32 12 34 47 27 20 -3 43 -8 52 -11z m-4591 -120 c0 -19 7 -48 14
-63 14 -26 13 -31 -18 -77 -36 -52 -76 -93 -76 -77 0 24 23 134 41 196 21 71
39 80 39 21z m-1220 -235 c33 -24 60 -47 60 -51 0 -4 -17 -31 -37 -59 l-36
-51 -131 7 c-216 12 -306 20 -309 26 -1 3 49 83 110 177 l113 172 85 -89 c47
-49 112 -108 145 -132z m1830 155 c50 -36 50 -37 33 -57 -18 -20 -108 -67
-129 -67 -7 0 -14 21 -16 48 -3 42 0 51 27 78 16 17 31 32 32 33 2 0 26 -15
53 -35z m4559 -230 c12 -130 19 -239 16 -243 -7 -6 -668 -121 -672 -117 -2 2
17 85 41 187 24 101 49 214 56 251 l13 67 71 12 c39 6 152 26 251 44 99 18
185 33 191 34 6 1 19 -88 33 -235z m-4739 141 c0 -25 -4 -35 -15 -35 -18 0
-99 40 -93 45 5 5 75 22 96 24 7 1 12 -12 12 -34z m-1027 -78 c-4 -7 -33 -47
-63 -90 l-54 -77 -76 0 c-41 0 -139 3 -217 7 l-142 6 17 29 c27 47 34 49 95
28 68 -24 163 -26 233 -5 27 8 86 37 129 64 93 57 88 54 78 38z m-2562 -82
c112 -8 438 -33 724 -55 609 -46 1048 -75 1410 -91 143 -6 261 -13 263 -14 2
-2 -28 -66 -66 -142 -38 -77 -79 -175 -93 -217 l-24 -78 -170 6 c-484 18 -854
41 -1745 109 l-555 42 -3 40 c-4 42 26 394 35 407 5 10 -14 11 224 -7z m3381
-15 c24 -16 67 -36 97 -43 l54 -14 -69 -6 c-89 -9 -194 -9 -194 -1 0 12 55 94
62 94 4 0 27 -13 50 -30z m867 13 c0 -5 -18 -37 -39 -73 -46 -75 -46 -76 -99
-196 -57 -132 -84 -227 -78 -277 4 -34 15 -51 54 -87 27 -25 78 -60 114 -78
42 -22 54 -31 34 -27 -49 9 -177 77 -216 115 -52 49 -64 99 -50 216 17 147 69
291 123 341 24 22 122 71 146 72 6 1 12 -2 11 -6z m-274 -120 c-43 -106 -75
-253 -75 -342 l0 -47 -296 -28 c-163 -15 -298 -26 -300 -24 -2 2 8 31 21 64
36 86 32 218 -10 324 -5 14 35 19 292 39 164 12 305 24 313 26 8 1 26 3 39 4
18 1 22 -3 16 -16z m-5465 -221 c130 -74 259 -125 370 -148 73 -15 97 -15 175
-5 109 14 273 68 458 150 76 34 140 61 142 61 3 0 5 -183 5 -407 0 -225 7
-592 15 -817 8 -226 13 -411 12 -412 -1 -1 -107 -70 -234 -153 l-233 -152
-485 271 -484 272 5 636 c2 351 7 687 10 749 l6 111 66 -48 c37 -26 114 -75
172 -108z m4643 24 c6 -35 -5 -88 -22 -114 -7 -11 -17 -8 -52 14 -24 16 -45
29 -47 30 -5 2 103 109 109 107 4 -1 9 -18 12 -37z m5207 3 c0 -6 11 -151 25
-323 30 -372 125 -1649 125 -1675 0 -14 -27 -30 -102 -63 -57 -25 -298 -134
-537 -242 -592 -269 -708 -317 -986 -412 -520 -179 -1046 -290 -1650 -350
-222 -21 -837 -29 -1155 -15 -948 44 -1777 150 -2455 316 -193 48 -614 160
-620 166 -8 9 27 198 65 350 171 684 332 1212 454 1493 47 109 174 352 208
400 13 17 26 18 239 11 l226 -7 -9 -55 c-5 -30 -7 -132 -6 -226 3 -171 3 -172
26 -175 29 -4 536 293 552 324 9 16 9 27 1 42 -11 21 -11 21 26 5 28 -11 62
-14 133 -11 82 3 105 8 165 36 38 18 83 43 100 56 27 21 56 25 315 50 157 14
295 26 308 26 20 0 8 -17 -76 -107 -186 -200 -314 -365 -592 -762 -204 -291
-368 -550 -470 -741 -242 -453 -290 -547 -288 -565 4 -24 126 -88 210 -109
116 -30 315 -60 401 -60 79 -1 91 1 106 21 10 11 39 95 66 185 90 306 162 513
245 698 129 289 268 572 278 566 5 -3 33 -21 61 -41 119 -79 281 -97 393 -42
69 34 154 105 190 158 16 24 30 45 33 47 2 2 21 1 43 -3 l40 -6 3 -112 c4
-103 7 -118 36 -178 40 -81 102 -140 190 -182 190 -88 459 -6 581 178 l30 46
37 -48 c24 -31 34 -54 31 -68 -9 -35 21 -152 55 -216 46 -86 136 -158 240
-192 20 -7 207 -323 294 -497 92 -186 132 -250 155 -250 11 0 48 26 82 59 35
32 158 124 275 203 l212 145 86 11 c101 13 175 44 234 97 40 37 41 37 41 13 0
-51 15 -54 337 -84 249 -23 305 -25 317 -15 9 8 16 19 16 26 0 22 -138 293
-182 358 -115 169 -388 399 -641 538 l-72 39 55 -7 c30 -4 109 -8 175 -8 111
0 124 2 177 28 112 55 152 132 278 527 92 289 140 448 148 489 l7 35 305 52
c168 28 314 54 325 57 37 9 85 7 85 -4z m-5335 -151 c25 -17 45 -34 45 -37 0
-9 -81 -58 -109 -66 -22 -7 -23 -5 -17 19 3 14 9 46 13 71 3 25 9 45 14 45 5
0 29 -14 54 -32z m-152 -70 c-8 -42 -4 -39 -42 -32 l-32 7 33 28 c43 36 49 36
41 -3z m-2365 -33 c304 -23 555 -45 559 -48 3 -3 -40 -112 -96 -242 -201 -467
-308 -859 -413 -1519 l-33 -208 -120 5 c-143 6 -228 28 -461 117 l-161 61 -12
277 c-25 580 -31 770 -38 1186 l-6 429 114 -8 c63 -4 363 -26 667 -50z m6982
-131 c-42 -138 -108 -352 -124 -400 -3 -7 -40 -6 -122 2 -66 7 -126 13 -135
13 -13 1 -65 88 -57 96 2 2 51 -4 110 -13 59 -8 110 -13 112 -11 3 3 21 81 41
174 19 94 41 192 48 219 l13 50 79 21 c44 11 81 20 83 19 1 0 -20 -77 -48
-170z m-3554 74 l20 -32 -31 -28 c-18 -15 -54 -37 -80 -48 -26 -11 -66 -33
-89 -48 -69 -47 -73 -47 -31 -1 70 77 179 189 185 189 3 0 14 -15 26 -32z
m-2519 -8 c95 -6 188 -10 207 -10 l35 0 -89 -172 c-176 -341 -288 -670 -495
-1451 -90 -340 -121 -473 -130 -562 -4 -36 -10 -65 -14 -65 -6 0 -215 56 -317
85 l-51 15 54 327 c123 757 216 1106 419 1574 53 123 101 236 107 252 11 25
15 27 57 22 25 -3 122 -10 217 -15z m2597 -65 c16 -12 17 -15 4 -15 -26 0 -48
11 -42 21 7 12 16 11 38 -6z m1752 -50 c-20 -15 -36 -19 -36 -10 0 5 38 23 50
24 3 0 -4 -6 -14 -14z m225 -44 c41 -11 115 -25 164 -31 50 -6 106 -15 125
-20 19 -5 139 -27 265 -49 127 -22 270 -48 318 -57 l88 -16 25 -49 c13 -27 22
-49 20 -49 -15 0 -375 77 -501 107 -255 60 -628 154 -638 160 -12 7 13 23 39
23 11 0 54 -9 95 -19z m-1568 -12 c20 -7 37 -15 37 -19 0 -7 -129 -50 -151
-50 -8 0 -32 17 -52 38 l-37 37 38 -3 c21 -2 53 1 72 6 19 6 40 9 45 7 6 -2
27 -9 48 -16z m-829 -163 c-14 -31 -27 -83 -31 -123 -4 -48 -16 -87 -39 -135
-53 -106 -170 -398 -159 -398 2 0 27 46 56 103 28 56 72 140 97 186 l45 83 17
-45 c10 -25 27 -61 39 -81 l22 -35 -79 -158 c-99 -196 -265 -561 -304 -668
-30 -80 -132 -396 -178 -552 l-25 -83 -45 0 c-48 0 -234 28 -360 55 -102 21
-190 55 -190 72 0 7 34 78 75 158 251 483 350 651 569 968 65 95 164 237 219
317 90 130 285 390 293 390 1 0 -8 -24 -22 -54z m446 34 c24 -13 30 -20 20
-23 -50 -17 -83 -27 -86 -27 -9 0 -3 32 8 50 15 24 14 24 58 0z m-157 -32 c4
-14 -69 -128 -83 -128 -4 0 -15 3 -24 6 -22 8 -4 50 42 97 37 38 57 46 65 25z
m1515 -205 c90 -31 173 -64 185 -73 l22 -18 -28 -13 c-22 -10 -46 -10 -122 0
l-94 13 -82 81 c-45 44 -73 77 -63 73 11 -4 92 -33 182 -63z m-1504 -44 c8 -7
-42 -79 -55 -79 -4 0 -14 12 -24 26 -16 25 -16 28 1 65 l17 39 26 -22 c14 -13
30 -26 35 -29z m118 -85 c19 -39 20 -46 8 -54 -28 -18 -120 -8 -120 12 0 16
63 86 78 87 7 1 22 -19 34 -45z m98 12 c0 -3 -4 -8 -10 -11 -5 -3 -10 -1 -10
4 0 6 5 11 10 11 6 0 10 -2 10 -4z m609 -115 l25 -7 -34 -26 c-39 -31 -50 -28
-50 13 0 31 10 34 59 20z m93 -109 c-9 -45 -21 -82 -27 -82 -6 0 -26 15 -44
32 l-33 33 58 52 c32 29 59 51 61 50 1 -2 -5 -40 -15 -85z m153 4 c51 -91 51
-92 14 -105 -31 -11 -119 -16 -119 -7 0 3 7 35 15 73 9 37 18 78 20 90 8 35
31 18 70 -51z m127 31 c26 -7 50 -15 53 -19 3 -3 -11 -20 -31 -37 -20 -18 -37
-31 -39 -29 -1 2 -14 24 -29 51 -31 52 -29 53 46 34z m1189 -105 c33 -41 66
-86 74 -102 l15 -29 -34 14 c-70 29 -126 69 -121 86 5 14 -9 70 -30 124 l-8
20 22 -20 c13 -11 50 -53 82 -93z m-883 12 c1 0 0 -9 -4 -18 -5 -13 -9 -14
-21 -5 -8 7 -18 21 -24 31 -9 16 -7 17 18 6 15 -7 29 -13 31 -14z m1745 -217
c128 -96 307 -276 307 -307 0 -4 -22 -24 -49 -44 -41 -30 -57 -36 -99 -36
l-50 0 -22 68 c-12 37 -46 117 -75 179 -45 95 -65 124 -136 199 l-84 87 65
-43 c36 -24 100 -70 143 -103z m-1503 28 c11 -20 9 -29 -15 -70 l-28 -47 -19
30 c-24 38 -33 90 -24 138 l7 37 33 -32 c19 -18 39 -43 46 -56z m-7240 -238
l0 -149 -32 20 c-18 10 -52 30 -75 42 l-43 24 0 147 0 148 75 -42 75 -42 0
-148z m7362 164 c36 -15 46 -26 56 -56 6 -21 9 -42 6 -47 -9 -13 -128 -9 -149
5 -17 13 -17 16 10 65 16 29 29 52 31 52 1 0 22 -8 46 -19z m218 11 c0 -12
-69 -82 -79 -82 -9 0 -21 33 -21 57 0 6 19 16 43 21 57 13 57 13 57 4z m253
-99 l45 -28 4 -105 c4 -79 11 -120 28 -164 41 -101 146 -196 243 -220 26 -6
15 -16 -165 -144 -106 -75 -211 -155 -233 -178 l-39 -40 -87 175 c-48 97 -128
244 -177 328 l-89 151 36 7 c51 9 159 44 204 67 53 27 125 94 148 140 11 21
24 38 29 38 5 0 29 -12 53 -27z m356 -194 c34 -12 37 -19 19 -37 -9 -9 -17 -7
-35 10 -13 12 -23 25 -23 30 0 10 1 10 39 -3z m-7915 -264 c295 -164 425 -241
429 -255 3 -12 14 -20 26 -20 17 0 335 211 522 346 26 19 49 34 53 34 3 0 6
-35 6 -78 0 -47 5 -85 13 -94 6 -9 62 -35 122 -58 61 -24 113 -46 118 -49 4
-4 12 -117 17 -252 5 -134 12 -291 15 -349 l6 -105 -333 -180 c-183 -98 -390
-210 -460 -247 l-126 -69 -421 273 c-231 150 -427 278 -434 283 -12 8 -13 47
-6 230 4 121 10 356 14 523 4 166 10 302 12 302 2 0 195 -106 427 -235z m8073
177 l41 -57 -55 -3 c-56 -3 -83 8 -83 34 0 15 42 84 50 83 3 0 24 -26 47 -57z
m127 23 c27 -6 28 -7 11 -25 -23 -26 -33 -25 -56 3 -23 28 -24 40 -1 34 9 -3
30 -8 46 -12z m676 -85 c27 -55 50 -103 50 -106 0 -4 -35 -4 -77 0 -43 3 -114
9 -158 12 -44 3 -83 9 -86 12 -4 4 -9 28 -13 55 l-6 47 65 0 c61 0 69 3 116
40 28 22 53 40 55 40 2 0 26 -45 54 -100z m-7370 -356 c52 -14 146 -29 209
-34 62 -5 115 -11 117 -13 2 -2 -1 -38 -8 -80 -14 -92 -6 -106 71 -126 l50
-13 32 -81 c72 -188 188 -561 177 -573 -3 -3 -173 14 -377 38 l-371 43 0 35
c0 19 -7 179 -15 355 -8 176 -15 358 -15 404 0 75 2 82 18 76 9 -3 60 -18 112
-31z m7287 -440 l-122 -229 -40 3 c-22 2 -41 5 -43 7 -2 2 20 83 50 179 l53
177 110 49 c60 26 111 47 112 46 2 -1 -53 -105 -120 -232z m-6577 102 c612
-167 788 -211 1060 -266 780 -158 1750 -250 2619 -250 601 0 1062 49 1611 171
277 61 724 197 971 294 118 46 134 51 125 36 -11 -17 -155 -531 -199 -711 -38
-152 -106 -476 -144 -690 l-9 -45 -149 -7 c-167 -7 -286 -28 -645 -113 -368
-87 -621 -136 -952 -185 -161 -23 -665 -80 -712 -80 l-33 0 -22 128 c-122 676
-195 962 -266 1038 -141 149 -316 -186 -488 -931 l-53 -230 -125 -3 c-238 -6
-579 29 -889 93 -177 37 -292 65 -605 151 -311 85 -526 126 -668 126 -137 0
-120 -23 -136 183 -21 282 -114 580 -372 1197 -27 65 -49 120 -49 124 0 3 8 3
18 0 9 -2 60 -16 112 -30z m-2602 -368 c35 -23 68 -52 73 -65 11 -30 12 -296
1 -291 -4 2 -43 23 -86 48 -76 45 -77 45 -72 80 3 19 6 88 6 153 0 64 3 117 7
117 4 0 35 -19 71 -42z m8991 -84 c3 -3 -3 -20 -12 -39 -13 -26 -23 -35 -42
-35 -23 0 -25 3 -19 28 12 50 23 64 47 56 12 -3 24 -8 26 -10z m-6317 -224
c13 -41 14 -51 3 -60 -11 -9 -16 -3 -24 27 -24 85 -5 115 21 33z m-927 -225
c22 -300 50 -574 96 -935 52 -410 56 -486 34 -570 -21 -79 -21 -199 0 -365 29
-231 13 -359 -54 -448 -82 -107 -316 -280 -496 -367 -256 -122 -554 -182 -731
-146 -105 21 -168 47 -353 147 -161 88 -294 185 -348 257 -65 85 -66 101 -60
637 3 289 16 685 31 995 14 283 28 603 32 710 4 107 9 211 13 232 l6 36 431
-257 c237 -142 439 -261 448 -264 10 -4 27 5 49 26 18 18 75 58 127 90 52 32
244 149 425 262 247 152 331 199 332 187 1 -10 9 -111 18 -227z m555 -15 c250
-44 460 -82 466 -84 22 -8 57 -247 66 -440 l3 -68 -80 -23 c-275 -80 -434
-157 -544 -262 -41 -40 -76 -71 -77 -70 -11 16 -314 955 -319 989 -5 41 -4 46
12 42 10 -2 223 -40 473 -84z m-335 -667 l117 -358 -18 -30 c-10 -16 -39 -70
-64 -118 l-47 -88 -22 183 c-12 101 -35 298 -51 438 -16 140 -31 272 -34 293
-2 20 -3 37 -1 37 2 0 56 -161 120 -357z"/>
<path d="M14118 19806 c-191 -55 -316 -255 -278 -442 60 -293 390 -415 624
-231 89 71 138 177 138 301 0 81 -11 109 -36 91 -51 -38 -70 -48 -101 -55
-105 -24 -205 58 -205 167 0 60 9 84 48 126 18 19 23 30 15 38 -17 17 -152 20
-205 5z"/>
</g>
</svg>
