<?xml version="1.0" standalone="no"?>
<!DOCTYPE svg PUBLIC "-//W3C//DTD SVG 20010904//EN"
 "http://www.w3.org/TR/2001/REC-SVG-20010904/DTD/svg10.dtd">
<svg version="1.0" xmlns="http://www.w3.org/2000/svg"
 width="3000.000000pt" height="3000.000000pt" viewBox="0 0 3000.000000 3000.000000"
 preserveAspectRatio="xMidYMid meet">

<g transform="translate(0.000000,3000.000000) scale(0.100000,-0.100000)"
fill="#000000" stroke="none">
<path d="M14945 25316 c-95 -31 -154 -62 -330 -174 -204 -130 -383 -219 -550
-275 -160 -52 -241 -68 -515 -97 -475 -51 -663 -84 -806 -140 -82 -33 -192
-104 -218 -142 -10 -13 -19 -18 -24 -13 -4 6 -40 49 -80 96 -98 117 -261 273
-354 336 -257 177 -574 257 -953 239 -586 -27 -1043 -232 -1435 -642 -335
-352 -476 -752 -449 -1279 21 -405 137 -695 372 -927 l88 -88 -50 -162 c-77
-250 -95 -363 -112 -690 -8 -159 -8 -298 1 -548 16 -441 16 -978 1 -1165 -7
-82 -30 -267 -51 -410 -74 -496 -75 -507 -75 -895 0 -367 1 -381 55 -830 33
-275 47 -359 63 -378 17 -21 28 6 21 53 -5 38 12 212 37 380 l13 80 12 -95
c60 -468 340 -1007 640 -1237 55 -41 66 -25 33 44 -44 91 -87 234 -110 360
-25 140 -21 169 10 83 60 -165 178 -366 318 -540 256 -321 539 -530 1058 -785
438 -214 844 -363 1215 -445 189 -42 174 -35 154 -65 -49 -75 -203 -131 -564
-205 -284 -58 -540 -123 -690 -175 -205 -71 -489 -220 -745 -390 -290 -193
-494 -385 -703 -661 -108 -143 -932 -1395 -1075 -1634 -88 -148 -179 -333
-213 -435 -68 -206 -32 -442 115 -750 l58 -122 -59 -84 c-76 -108 -113 -185
-138 -283 -45 -176 -12 -335 107 -513 123 -187 358 -349 583 -403 105 -25 273
-27 391 -4 113 21 357 98 430 134 32 17 61 30 64 30 3 0 5 -72 5 -159 0 -299
48 -543 172 -876 51 -139 160 -355 234 -465 31 -47 98 -159 149 -250 105 -187
202 -350 314 -525 135 -210 248 -424 414 -785 213 -465 296 -724 312 -985 l6
-100 -86 -18 c-47 -10 -127 -32 -178 -48 -376 -126 -585 -290 -717 -564 -172
-356 -181 -615 -30 -920 92 -186 188 -284 309 -319 69 -20 242 -21 332 -2 64
14 68 13 115 -9 85 -40 200 -58 348 -53 149 5 204 21 305 89 l59 39 37 -16
c126 -52 414 -79 538 -50 37 9 93 29 125 45 138 70 249 77 444 27 149 -38 271
-49 381 -37 215 26 340 144 409 388 33 115 31 294 -4 468 -60 292 -79 673 -45
860 42 226 103 395 252 700 100 204 164 305 195 305 31 0 95 -101 195 -305
149 -305 210 -474 252 -700 34 -187 15 -568 -45 -860 -35 -174 -37 -353 -4
-468 69 -244 194 -362 409 -388 110 -12 232 -1 381 37 195 50 306 43 444 -27
78 -39 166 -59 267 -59 106 0 273 25 366 54 l72 23 57 -38 c97 -65 154 -82
302 -87 147 -5 256 11 348 52 50 22 56 23 117 10 89 -19 262 -18 330 2 121 35
217 133 309 319 126 255 140 453 49 728 -113 343 -299 550 -615 686 -122 53
-256 97 -359 118 l-86 18 6 100 c16 255 96 511 299 958 165 362 289 596 421
787 103 149 202 316 317 534 55 103 125 225 154 269 72 107 182 325 232 462
124 333 172 577 172 876 0 87 2 159 5 159 3 0 32 -13 64 -30 73 -36 317 -113
430 -134 118 -23 286 -21 391 4 225 54 460 216 583 403 118 178 152 338 107
511 -27 105 -49 153 -126 267 l-66 98 60 133 c143 316 175 540 108 743 -34
102 -125 287 -213 435 -143 239 -967 1491 -1075 1634 -209 276 -413 468 -703
661 -256 170 -540 319 -745 390 -150 52 -406 117 -690 175 -135 28 -289 64
-343 81 -138 44 -260 127 -209 142 9 3 170 52 357 110 187 58 450 137 585 176
467 134 655 210 870 351 132 87 220 161 334 281 362 380 665 829 763 1129 38
116 77 289 97 435 9 61 19 126 23 145 l7 35 7 -50 c4 -27 11 -128 15 -223 8
-196 12 -200 64 -68 74 187 98 388 81 675 -6 102 -11 198 -11 215 l1 31 14
-32 c20 -47 91 -380 105 -493 14 -115 17 -127 31 -113 15 15 76 381 84 503 13
193 -20 404 -97 628 -71 209 -256 599 -545 1156 -97 187 -199 391 -226 455
-112 265 -202 593 -242 886 -67 478 -114 732 -190 1030 -24 93 -43 170 -42
171 1 0 48 12 104 27 56 14 136 40 178 58 202 84 518 343 642 524 88 131 151
284 190 466 27 126 24 400 -5 531 -60 274 -157 499 -286 666 -254 330 -772
538 -1226 493 -455 -46 -816 -227 -1051 -526 -31 -38 -85 -109 -122 -157 l-67
-87 -153 74 c-341 164 -582 241 -794 253 l-122 7 33 50 c37 55 81 160 91 218
6 30 4 37 -9 37 -9 0 -30 -9 -45 -21 -22 -16 -49 -22 -113 -26 -119 -8 -211
18 -419 117 -295 141 -408 140 -679 -2 l-75 -40 53 51 c56 53 207 158 223 154
5 -2 9 3 9 11 0 19 -124 46 -209 46 -41 -1 -93 -10 -136 -24z m60 -140 c-89
-88 -127 -183 -106 -265 l7 -26 7 30 c17 81 51 106 259 189 132 53 233 67 328
47 30 -6 129 -47 220 -90 212 -102 289 -126 402 -126 49 0 88 -1 88 -2 0 -10
-76 -69 -120 -92 -56 -29 -221 -86 -275 -95 -16 -2 11 -3 60 -1 128 5 216 30
293 82 l64 44 -31 -44 c-60 -88 -161 -147 -304 -179 -92 -20 -200 -27 -247
-15 -20 6 -19 4 5 -7 48 -23 180 -39 266 -33 64 4 93 12 154 42 l75 38 158 -6
c174 -5 266 -24 447 -92 349 -130 688 -312 956 -513 633 -473 907 -851 1114
-1537 89 -295 196 -747 181 -762 -3 -3 -56 24 -118 60 -156 91 -273 144 -371
169 -156 39 -378 11 -529 -69 -187 -98 -395 -377 -447 -601 -50 -215 -76 -606
-52 -787 44 -338 150 -663 343 -1051 95 -194 176 -327 265 -437 30 -38 53 -70
51 -73 -3 -2 -56 1 -119 7 -137 14 -394 6 -539 -16 -329 -49 -664 -159 -770
-252 -19 -17 -74 -54 -123 -82 -48 -29 -144 -97 -213 -152 -131 -105 -374
-319 -409 -360 -11 -13 12 4 50 37 117 102 578 444 597 444 2 0 3 -35 3 -78 1
-87 17 -127 90 -222 127 -165 277 -262 530 -345 220 -73 350 -98 503 -99 130
-1 133 -1 139 -24 3 -13 3 -89 0 -170 -6 -186 -23 -248 -124 -452 -72 -147
-81 -160 -167 -246 -77 -76 -106 -97 -186 -137 -179 -87 -332 -116 -667 -124
-356 -9 -542 11 -1000 109 l-242 51 6 44 c6 48 -5 55 -37 23 -28 -28 -50 -86
-50 -134 0 -49 13 -66 51 -66 26 0 27 2 19 30 -7 23 -5 30 6 30 8 0 114 -22
237 -49 430 -95 614 -115 995 -108 286 5 371 14 532 58 170 46 359 165 446
280 97 128 192 326 234 488 l12 44 55 -94 c107 -179 250 -288 448 -341 116
-31 375 -31 489 0 120 33 219 80 351 166 129 85 136 86 166 28 20 -38 29 -25
29 40 0 36 -6 47 -53 95 -54 53 -70 60 -97 43 -12 -7 -11 -13 10 -35 30 -32
32 -31 -131 -133 -208 -129 -395 -176 -612 -154 -266 28 -414 122 -549 348
-102 170 -98 158 -98 293 l0 121 48 24 c77 39 165 110 262 213 151 160 240
288 296 430 9 21 12 20 104 -39 125 -78 320 -174 393 -193 101 -25 265 -38
403 -31 329 15 502 93 626 283 l43 66 12 -44 c23 -76 52 -230 64 -334 11 -96
7 -293 -7 -364 -7 -31 -8 -28 -31 50 -51 182 -124 399 -133 399 -6 0 -10 6
-10 14 0 7 -6 19 -14 25 -12 10 -14 -43 -19 -346 -3 -207 -11 -400 -18 -458
l-13 -100 -9 65 c-16 129 -68 320 -87 320 -4 0 -19 -75 -34 -167 -46 -280 -83
-455 -126 -584 -100 -306 -303 -629 -636 -1014 -361 -419 -610 -563 -1309
-761 -212 -59 -636 -188 -845 -256 -69 -22 -136 -40 -150 -40 -14 0 -32 -6
-40 -13 -22 -19 -346 -126 -545 -179 -328 -88 -570 -119 -935 -119 -278 0
-402 14 -710 83 -348 77 -652 128 -1045 175 -566 69 -809 121 -1212 260 -469
161 -1017 434 -1318 657 -123 90 -316 278 -419 408 -154 193 -247 354 -357
615 l-63 150 0 155 -1 155 -17 -105 c-10 -58 -21 -175 -24 -260 -7 -172 7
-302 51 -452 13 -46 23 -84 21 -85 -4 -4 -118 154 -168 232 -116 181 -215 405
-268 606 -50 192 -64 309 -64 561 -1 222 -1 226 -18 193 -24 -46 -54 -160 -93
-349 -18 -88 -35 -151 -38 -140 -20 70 -32 338 -32 704 1 486 -6 420 155 1450
28 179 72 453 99 610 27 157 47 287 45 289 -9 10 -18 -22 -83 -315 l-68 -309
-7 250 c-4 138 -11 390 -17 560 -15 469 7 823 66 1055 27 105 78 267 88 276 3
4 23 -7 44 -24 201 -158 466 -282 718 -337 44 -9 85 -20 92 -24 7 -3 -27 -36
-84 -81 -122 -95 -332 -337 -380 -435 l-14 -30 23 30 c87 114 373 360 573 492
225 148 236 156 315 240 43 45 100 115 126 155 27 40 60 83 74 96 36 32 204
143 306 202 49 27 85 50 81 50 -20 0 -243 -96 -300 -130 -37 -21 -67 -36 -67
-33 0 2 13 48 30 101 16 54 48 183 70 287 49 231 70 296 119 372 67 104 180
165 329 179 l69 7 -1 -59 c0 -45 7 -71 27 -111 15 -29 29 -53 30 -53 2 0 1 26
-1 58 -4 57 -3 60 32 94 28 28 54 40 123 58 145 38 214 82 246 158 l14 34 28
-26 c30 -28 45 -35 25 -11 -6 8 -18 35 -26 61 -13 45 -13 48 14 97 39 72 114
151 197 207 126 85 198 189 230 334 17 76 17 182 0 179 -5 -1 -19 -37 -30 -81
-12 -43 -34 -110 -50 -148 l-29 -68 -27 110 c-25 102 -69 207 -125 295 l-24
38 38 31 c52 44 162 95 265 125 108 30 266 54 677 100 357 40 472 63 650 130
155 58 290 128 479 249 136 87 269 161 246 138 -5 -6 -41 -36 -80 -67 -83 -67
-107 -101 -38 -52 88 62 251 144 291 146 7 1 -17 -28 -53 -63z m3908 -4696
c181 -73 255 -120 345 -214 84 -88 140 -186 184 -316 28 -85 31 -108 32 -215
0 -105 -3 -129 -26 -193 -37 -102 -81 -173 -162 -259 -117 -125 -236 -170
-426 -161 -182 9 -333 76 -440 196 -101 113 -191 330 -212 513 -11 89 -9 114
12 257 l24 158 95 46 c53 26 146 83 208 127 118 85 178 120 204 121 9 0 82
-27 162 -60z m-4006 -8040 c52 -62 136 -98 295 -125 120 -21 246 -68 295 -110
l40 -34 -7 39 c-4 21 -17 55 -29 75 -12 21 -21 39 -19 40 5 4 297 -43 347 -55
62 -16 192 -79 281 -138 41 -28 76 -47 78 -42 2 4 -5 33 -16 63 -16 49 -16 55
-3 48 9 -5 41 -12 71 -16 89 -12 157 -42 282 -125 113 -74 121 -78 200 -89 79
-11 268 -22 268 -16 0 2 -22 11 -50 20 -27 9 -52 20 -55 25 -6 10 72 -11 145
-39 58 -22 240 -129 240 -142 0 -5 5 -9 10 -9 6 0 10 20 10 44 l0 45 92 -26
c50 -13 131 -42 178 -62 83 -36 276 -159 350 -224 l35 -31 3 37 c2 25 -6 56
-25 96 l-29 59 38 -34 c47 -42 167 -103 274 -138 175 -58 333 -161 521 -339
92 -87 179 -202 188 -247 4 -19 15 -49 25 -65 43 -70 107 -353 179 -792 57
-345 72 -481 78 -733 8 -321 -12 -475 -102 -765 -137 -440 -325 -741 -676
-1079 -332 -320 -612 -519 -1004 -711 -228 -112 -426 -190 -760 -300 -599
-199 -999 -256 -1775 -256 -776 0 -1176 57 -1775 256 -334 110 -532 188 -760
300 -282 139 -549 309 -754 483 -328 277 -571 553 -717 814 -150 266 -275 656
-305 948 -24 229 -1 588 61 970 76 463 140 761 185 851 13 26 26 62 30 80 9
45 97 160 188 246 188 178 346 281 521 339 107 35 227 96 274 138 l38 34 -29
-59 c-19 -40 -27 -71 -25 -95 l3 -37 44 37 c87 73 277 192 358 225 45 18 120
43 167 56 l86 22 0 -43 c0 -24 5 -44 10 -44 6 0 10 4 10 9 0 13 182 120 240
142 73 28 151 49 145 39 -3 -5 -28 -16 -55 -25 -28 -9 -50 -18 -50 -20 0 -6
189 5 268 16 79 11 87 15 200 89 125 83 193 113 282 125 30 4 62 11 71 16 13
7 13 1 -3 -48 -11 -30 -18 -59 -16 -63 2 -5 37 14 78 42 89 59 219 122 281
138 50 12 342 59 347 55 2 -1 -6 -18 -17 -36 -11 -19 -24 -53 -29 -76 l-10
-43 40 35 c50 42 176 89 295 110 161 27 255 68 299 129 11 14 20 26 22 26 2 0
15 -14 29 -30z m-3992 -866 c-25 -82 -61 -221 -81 -309 -20 -88 -41 -178 -46
-200 l-11 -40 -19 45 c-28 64 -151 430 -147 434 2 2 45 24 94 49 50 26 126 75
170 110 44 35 81 63 82 62 2 -1 -17 -69 -42 -151z m8142 -16 c51 -23 93 -48
93 -54 0 -15 -123 -376 -148 -434 l-19 -45 -11 40 c-5 22 -26 112 -46 200 -20
88 -56 227 -81 310 -25 82 -45 151 -45 152 0 2 37 -26 82 -61 48 -38 119 -82
175 -108z"/>
<path d="M14433 21939 c-379 -38 -689 -217 -1012 -585 -279 -317 -567 -757
-737 -1124 -278 -600 -305 -1210 -73 -1675 165 -333 452 -618 750 -745 377
-160 1021 -48 1441 253 302 216 551 513 710 847 160 337 248 813 248 1345 0
287 -27 472 -100 695 -100 304 -246 535 -451 717 -252 222 -478 301 -776 272z
m-146 -1707 c93 -55 197 -115 233 -135 77 -42 249 -102 364 -125 l81 -17 32
-65 c58 -117 88 -350 63 -486 -22 -122 -96 -278 -187 -395 -152 -194 -464
-317 -713 -280 -188 28 -386 184 -480 376 -57 118 -74 209 -67 369 8 209 57
367 164 530 52 79 311 339 330 331 7 -2 88 -49 180 -103z"/>
<path d="M14113 19795 c-139 -43 -239 -158 -264 -305 -20 -112 21 -238 104
-322 187 -187 497 -132 609 108 35 74 48 179 29 228 l-12 29 -27 -26 c-34 -32
-72 -47 -122 -47 -162 0 -238 186 -127 308 18 20 19 24 7 32 -22 14 -148 11
-197 -5z"/>
<path d="M18583 19929 c-56 -28 -116 -89 -145 -147 -19 -39 -23 -63 -23 -142
0 -80 4 -102 23 -138 35 -66 85 -115 149 -147 49 -24 70 -29 138 -29 68 -1 89
3 136 27 67 32 132 99 162 165 29 65 29 179 0 245 -21 46 -36 57 -48 37 -13
-21 -86 -50 -125 -50 -84 0 -164 68 -178 151 -9 53 -28 59 -89 28z"/>
</g>
</svg>
